# xmcd
#
# Track frame offsets:
#	150
#	18197
#	39067
#	70412
#
# Disc length: 1202 seconds
#
# Revision: 2
# Processed by: cddbd v1.5.1PL2 Copyright (c) Steve Scherf et al.
# Submitted via: audiograbber 1.83.01
#
DISCID=2504b004
DTITLE=Alexander O'Neal - Criticize '98 Mix
DYEAR=1998
DGENRE=Pop
TTITLE0=Criticize '98 Mix (Critical YoJo Radio Mix)
TTITLE1=Criticize '98 Mix (Chill Out Poistivity Krew Radio Mix)
TTITLE2=Criticize '98 Mix (Critical YoJo Working Club Mix)
TTITLE3=Criticize '98 Mix (House Positivity Mix)
EXTD=
EXTT0=
EXTT1=
EXTT2=
EXTT3=
PLAYORDER=
